<svg xmlns="http://www.w3.org/2000/svg" width="39.3381mm" height="32.2354mm" version="1.1" viewBox="0 0 36.86 30.2">

  <style type="text/css">
    .fil1 {fill:black;fill-rule:nonzero}
    .fil2 {fill:#272525;fill-rule:nonzero}
    .fil0 {fill:#EFC5CD;fill-rule:nonzero}
  </style>

  <g>
    <path class="fil0" d="M13.41 25.92c0.14,0.06 0.29,0.12 0.44,0.18 0.29,0.12 0.48,0.18 0.61,0.21 0.14,0.02 0.22,0.02 0.31,0.02 0.08,-0 0.17,-0.01 0.3,0.02 0.07,0.01 0.15,0.03 0.25,0.05 0.1,0.03 0.22,0.06 0.37,0.09 1.2,0.26 2.44,0.35 3.68,0.26 1.23,-0.09 2.45,-0.36 3.59,-0.8 2.29,-0.88 4.25,-2.38 5.73,-4.22 1.48,-1.84 2.51,-4.05 2.92,-6.41 0.2,-1.18 0.25,-2.39 0.11,-3.59 -0.13,-1.2 -0.44,-2.39 -0.92,-3.49 0.41,1.13 0.6,2.18 0.69,3.21 0.09,1.04 0.09,2.08 -0.02,3.25 -0.07,-0.01 -0.22,-0.03 -0.31,0.54 -0.17,0.85 -0.41,1.72 -0.73,2.55 -0.33,0.82 -0.72,1.61 -1.15,2.31 -0.88,1.39 -1.92,2.41 -2.66,2.86 -0.12,0.08 -0.24,0.16 -0.38,0.23 -0.14,0.07 -0.31,0.16 -0.49,0.26 -0.18,0.11 -0.41,0.22 -0.66,0.37 -0.25,0.16 -0.57,0.31 -0.93,0.53 0.24,-0.14 0.49,-0.28 0.72,-0.43 0.23,-0.16 0.46,-0.31 0.69,-0.48 -0.04,-0.06 -0.13,-0.18 -0.13,-0.18 -0.9,0.63 -2.01,1.2 -3.19,1.56 -1.18,0.37 -2.42,0.52 -3.51,0.48 0,0 -0,-0.15 -0,-0.22l-0.27 0c-0.09,-0 -0.18,-0.01 -0.27,-0.02l-0.53 -0.04c-0.25,-0.16 -0.07,-0.22 0.36,-0.26 0.11,-0.01 0.23,-0.02 0.37,-0.02 0.14,-0.01 0.29,-0.03 0.45,-0.04 0.33,-0.02 0.7,-0.07 1.09,-0.12 0.79,-0.13 1.67,-0.36 2.47,-0.69 0.2,-0.09 0.4,-0.16 0.58,-0.26 0.18,-0.1 0.37,-0.19 0.54,-0.28 0.34,-0.2 0.65,-0.38 0.9,-0.58 -0.04,-0.06 -0.12,-0.18 -0.16,-0.24 -0.27,0.19 -0.56,0.35 -0.84,0.52l-0.01 -0.02c4.62,-2.53 7.31,-8.55 5.16,-13.92 -0.26,-0.65 -0.6,-1.27 -0.99,-1.84 0.03,0.03 0.06,0.07 0.09,0.1 0.14,0.16 0.29,0.33 0.43,0.49 0.13,0.17 0.25,0.33 0.37,0.47 0.21,0.3 0.37,0.54 0.46,0.64 0.19,0.32 0.29,0.28 0.33,0.01 0.02,-0.13 0.01,-0.34 -0.01,-0.59 -0.02,-0.26 -0.08,-0.55 -0.16,-0.88 -0.04,-0.17 -0.09,-0.33 -0.15,-0.5 -0.06,-0.17 -0.12,-0.35 -0.19,-0.53 -0.15,-0.35 -0.32,-0.71 -0.52,-1.05 -0.19,-0.35 -0.41,-0.66 -0.62,-0.96 -0.23,-0.28 -0.43,-0.55 -0.64,-0.75 -0.4,-0.42 -0.35,-0.5 -0.17,-0.48 0.18,0.01 0.48,0.12 0.55,0.04 -0.49,-0.37 -0.83,-0.65 -1.19,-0.95 -0.18,-0.14 -0.37,-0.27 -0.57,-0.41 -0.21,-0.14 -0.45,-0.26 -0.72,-0.39 0.01,-0.02 -0.19,-0.14 -0.52,-0.31 -0.17,-0.09 -0.37,-0.19 -0.6,-0.28 -0.23,-0.09 -0.48,-0.21 -0.76,-0.3 -1.1,-0.39 -2.52,-0.63 -3.45,-0.64 0,0 -0.16,0.01 -0.54,0.03 -0.39,0.03 -1,0.06 -1.91,0.2 -0.61,0.1 -0.59,0.19 -0.57,0.25 -0.01,-0.07 -0.01,-0.07 -0.03,-0.14 -0.29,0.13 -0.73,0.24 -1.17,0.36 -0.44,0.12 -0.88,0.27 -1.15,0.41 -0.03,-0.07 -0.03,-0.07 -0.05,-0.14 -1.08,0.61 -2.24,1.1 -3.16,1.91 -0.05,-0.06 -0.05,-0.06 -0.09,-0.12 -0.24,0.2 -0.48,0.39 -0.66,0.54 -0.18,0.15 -0.3,0.24 -0.32,0.21 -0.05,-0.05 -0.05,-0.05 -0.1,-0.11 -0.53,0.36 -1.23,1.4 -1.33,1.31 0.06,0.05 0.06,0.05 0.11,0.09 -0.79,0.95 -1.35,1.88 -1.83,2.76 -0.11,0.22 -0.23,0.45 -0.34,0.66 -0.1,0.22 -0.19,0.45 -0.29,0.66 -0.05,0.11 -0.09,0.22 -0.14,0.33 -0.04,0.11 -0.08,0.22 -0.12,0.34 -0.08,0.22 -0.15,0.45 -0.23,0.67 -0.39,1.2 -0.61,2.57 -0.58,4.01 0.04,1.44 0.34,2.92 0.89,4.29 1.09,2.76 3.11,5.12 5.53,6.63 0.54,0.34 1.15,0.53 0.69,0.08 0.26,0.17 0.54,0.31 0.82,0.45l0.42 0.21z" />
    <path class="fil1" d="M1.94 9.77c0.35,-0.98 2.44,-3.58 2.78,-3.92 0.14,-0.16 0.3,-0.24 0.51,-0.22 2.88,-1.54 4.02,4.49 2.7,5.83 -0.37,0.41 -0.77,0.49 -1.26,0.43 -0.2,-0.06 -0.41,-0.1 -0.61,-0.14 -0.1,-0.02 -0.14,-0.06 -0.14,-0.16 0.02,-0.51 0.06,-1.04 0.08,-1.54 0.02,-0.24 0.04,-0.53 0.06,-0.77 0.04,-0.47 0.06,-0.98 0.08,-1.44 0,-0.06 0,-0.12 0,-0.16 0.22,-1.56 -1.08,-0.45 -1.12,-0.12 -0.04,0.16 -0.14,0.37 -0.28,0.53 -0.26,0.24 -0.43,0.55 -0.57,0.85 -0.18,0.45 -0.41,0.85 -0.57,1.28 -0.24,0.57 -0.41,1.12 -0.49,1.71 -0.08,0.45 -0.14,0.87 -0.18,1.32 -0.04,0.41 -0.16,0.87 -0.2,1.3 -0.02,0.35 0.02,0.65 0.04,1 0.02,0.16 0.04,0.28 0.06,0.47 0.32,2.27 1.1,1.02 1.4,0.2 0.14,-0.37 0.2,-0.71 0.3,-1.06 0.06,-0.16 0.06,-0.28 -0.02,-0.45 -0.16,-0.32 0.02,-0.65 0.41,-0.81 0.41,-0.16 0.83,-0.2 1.24,-0.26 0.45,-0.06 0.63,0.2 0.67,0.55 0,0.16 -0.02,0.37 -0.1,0.57 -0.55,1.26 -1.14,3.25 -1.87,4 -0.08,0.04 -0.14,0.16 -0.2,0.24 -0.14,0.24 -0.33,0.35 -0.57,0.3 -0.28,-0.04 -0.51,-0.04 -0.81,0 -0.32,0.04 -0.65,-0.04 -0.95,-0.16 -0.14,-0.02 -0.26,-0.02 -0.39,-0.02 -0.1,0.02 -0.2,0 -0.3,-0.04 -0.43,-0.12 -0.75,-0.41 -1.04,-0.75 -0.14,-0.14 -0.26,-0.28 -0.28,-0.51 -0.02,-0.16 -0.1,-0.3 -0.14,-0.43 -0.16,-0.49 -0.18,-0.95 -0.16,-1.42 0,-0.3 0.06,-0.57 0.12,-0.89 0.12,-0.49 0.22,-0.95 0.37,-1.46 0.14,-0.41 0.32,-0.87 0.45,-1.28 0.1,-0.24 0.18,-0.49 0.28,-0.71 -0.02,0 -0.04,0 -0.08,0 -0.02,0.04 -0.06,0.1 -0.1,0.18 -0.04,0.08 -0.1,0.14 -0.14,0.2 0.32,-0.73 0.65,-1.48 1.04,-2.21z" />
    <path class="fil1" d="M8.76 16.56c-0.02,0.1 -0.02,0.22 -0.02,0.33 -0.04,0.04 0,0.06 0.02,0.1 0.04,0.1 0.12,0.2 0.22,0.24 0.02,0 0.02,0 0.04,-0.02 0.02,-0.02 0.06,-0.04 0.08,-0.06 0.35,-0.37 0.59,-0.83 0.79,-1.3 0.1,-0.16 0.14,-0.35 0.2,-0.49 -0.47,-0.2 -0.69,-0.02 -0.95,0.33 -0.22,0.32 -0.26,0.51 -0.39,0.87zm1.81 -3.96c-0.04,-0.24 -0.08,-0.43 -0.14,-0.65 -0.06,-0.2 -0.14,-0.37 -0.28,-0.49 -0.08,-0.08 -0.14,-0.18 -0.26,-0.24 -0.12,-0.1 -0.22,-0.18 -0.37,-0.26 -0.24,-0.2 -0.69,0.22 -0.83,0.37 -0.55,0.77 -0.02,1.83 0.49,2.38 0.59,1.16 1.67,0.75 1.42,-0.61 0.04,-0.16 0.04,-0.35 -0.02,-0.49zm-2.42 0.81c-0.22,-0.37 -0.32,-0.81 -0.39,-1.28 -0.06,-0.35 0.04,-0.67 0.22,-1 0.02,-0.04 0.06,-0.08 0.14,-0.1 0.16,-0.14 0.37,-0.26 0.61,-0.41 0.18,-0.12 0.43,-0.14 0.65,-0.1 0.16,0 0.61,0.41 0.71,0.49 0.12,0.1 0.24,0.22 0.39,0.3 0.18,0.16 0.3,0.35 0.41,0.61 0.06,0.16 0.1,0.3 0.18,0.45 0.06,0.18 0.08,0.39 0.12,0.59 0.02,0.18 0.02,0.33 0.06,0.49 0.02,0.02 0.02,0.02 0.02,0.06 -0.06,-0.32 0.02,0.14 0,0.2 -0.02,0.24 0.04,0.47 -0.02,0.69 -0.06,0.12 0.06,0.26 0.22,0.26 1,-0.06 1.38,0.08 2.36,-0.08 0.1,-0.04 0.2,-0.1 0.33,-0.16 0.04,-0.02 0.1,-0.06 0.14,-0.08 0.04,0.06 0.02,0.14 0,0.18 -0.06,0.1 0.14,0.14 0.06,0.22 -0.61,0.65 -2.48,0.63 -3.21,0.63 -0.02,0 -0.04,0 -0.06,0 -0.06,0 -0.12,0.02 -0.12,0.06 0,0.04 -0.02,0.06 -0.04,0.1 -0.06,0.35 -0.24,0.67 -0.39,1.02 -0.1,0.24 -0.24,0.43 -0.39,0.61 -0.08,0.12 -0.16,0.26 -0.28,0.35 -0.04,0.02 -0.08,0.06 -0.14,0.1 -0.04,0.02 -0.1,0.06 -0.12,0.12 -0.16,0.18 -0.35,0.32 -0.57,0.39 -0.04,0 -0.14,0.04 -0.2,0.08 -0.28,0.08 -0.57,0.06 -0.83,0.02 -0.37,-0.04 -0.61,-0.3 -0.81,-0.65 -0.06,-0.16 -0.12,-0.37 -0.18,-0.55 -0.04,-0.37 -0.06,-0.73 -0.02,-1.12 0.04,-0.39 0.16,-0.75 0.35,-1.12 0.18,-0.45 0.45,-0.83 0.75,-1.2 0.06,-0.02 0.06,-0.06 0.08,-0.12 0,-0.02 0,-0.04 -0.02,-0.06z" />
    <path class="fil1" d="M15.18 9.49c-0.04,0.12 -0.45,0.73 -0.49,0.77 -0.02,0.1 -0.06,0.24 -0.16,0.3 0,-0.08 0.02,-0.12 0.02,-0.12 0.18,-0.41 0.49,-0.77 0.73,-1.16 -0.06,-0.08 -0.02,-0.08 -0.02,-0.08 0.35,-0.45 0.65,-0.81 0.91,-1.1 0.04,-0.04 0.16,-0.08 0.16,-0.18 0.06,-0.06 0.06,-0.06 0.18,-0.2 -0.16,0.12 -0.2,0.14 -0.3,0.24 -0.1,0.08 -0.2,0.12 -0.28,0.28 -0.51,0.57 -0.97,1.22 -1.38,2.05 -0.06,0.26 -0.12,0.35 -0.18,0.53 -0.06,0.14 -0.02,0.2 -0.06,0.33 0,0 0,0 0,0.06 0.12,-0.2 0.18,-0.41 0.24,-0.57 0.12,-0.22 0.57,-0.91 0.65,-1.1l-0.02 -0.06zm-0.91 1.32c-0.2,0.37 -0.41,0.85 -0.55,1.34 0,0.06 0,0.1 0,0.12 0.16,-0.28 0.26,-0.61 0.39,-0.87 0.1,-0.18 0.16,-0.39 0.22,-0.63 0,0 -0.04,0.02 -0.06,0.04zm-0.61 6.5c-0.06,0.18 -0.12,0.39 -0.18,0.59 -0.04,0.12 -0.06,0.24 -0.06,0.39 -0.04,0.2 -0.1,0.39 -0.12,0.57 -0.04,0.16 -0.08,0.32 -0.14,0.49 0.04,0.14 -0.04,0.2 -0.06,0.33 -0.02,0.08 -0.06,0.16 -0.08,0.26 0,0.18 -0.06,0.32 -0.1,0.53 -0.02,0.1 -0.04,0.24 -0.08,0.37 -0.04,0.14 -0.1,0.3 -0.1,0.45 0,0.2 -0.02,0.41 -0.02,0.57 0,0.06 0.02,0.1 0.04,0.16 0.2,0.41 0.35,-0.12 0.39,-0.22 0.12,-0.28 0.04,-0.14 0.16,-0.45 0.06,-0.24 0.14,-0.53 0.22,-0.77 0.04,-0.16 0.08,-0.37 0.1,-0.53 0.08,-0.49 0.14,-1.04 0.2,-1.56 0.1,-0.63 0.08,-0.53 0.14,-1.18 0.06,-1.22 -0.18,-0.47 -0.24,-0.16 -0.02,0.06 -0.04,0.12 -0.06,0.18zm3.53 -5.75c0.16,-0.37 0.35,-0.73 0.51,-1.06 0.18,-0.47 0.31,-0.89 0.37,-1.44 0.04,-0.41 -0.16,-1.18 -0.49,-0.47 -0.08,0.24 -0.2,0.49 -0.28,0.73 -0.14,0.39 -0.28,0.79 -0.45,1.22 -0.04,0.16 -0.12,0.35 -0.18,0.55 -0.14,0.51 -0.35,0.95 -0.53,1.38 -0.1,0.28 -0.2,0.61 -0.35,0.87 -0.28,0.67 -0.12,0.39 -0.39,1.08 -0.1,0.24 -0.24,0.63 0.06,0.71 0.24,-0.04 0.95,0.3 1.14,0.26 0.3,0 0.59,0.18 0.83,0.1 0.12,-0.04 0.22,-0.06 0.3,-0.08 0.55,-0.18 0,0.06 0.51,-0.24 0.24,0 0.69,-0.98 0.95,-0.95 0.89,-0.47 0.3,0.59 -0.51,1.22 -0.08,0.06 -0.3,0.18 -0.39,0.24 -2.03,0.73 -3.78,-0.69 -3.66,0.14 0.04,0.47 0.04,0.91 0.06,1.32 0,0.1 -0.02,0.18 0,0.26 -0.02,0.24 -0.02,0.43 -0.02,0.69 -0.04,0.12 -0.06,0.26 -0.06,0.37 -0.04,0.16 -0.1,0.3 -0.1,0.47 -0.02,0.1 -0.06,0.22 -0.04,0.37 -0.04,0.14 -0.08,0.26 -0.1,0.45l-0.02 0c0.02,-0.04 0.02,-0.06 0.04,-0.08 0,-0.04 -0.04,-0.04 -0.04,-0.02 -0.02,0 -0.04,0.04 -0.06,0.04 -0.02,0.02 -0.02,0.06 -0.02,0.08 0,0.12 0,0.22 -0.06,0.33 -0.04,0.16 -0.1,0.35 -0.12,0.49 -0.1,0.3 -0.18,0.59 -0.32,0.79 0,0.06 0,0.1 0,0.14 0,0.16 -0.08,0.26 -0.16,0.35 -0.02,0.04 -0.04,0.08 -0.06,0.12 -0.14,0.35 -0.26,0.59 -0.43,0.89 -0.06,0.16 -0.16,0.24 -0.28,0.26 -0.08,-0.02 -0.18,0.02 -0.24,0.02 -0.04,0 -0.04,0.06 -0.1,0.04 -0.06,0.02 -0.12,0.02 -0.16,0.04 -0.14,0.06 -0.3,0 -0.43,-0.1 -0.06,-0.04 -0.18,-0.16 -0.26,-0.24 -0.14,-0.14 -0.26,-0.39 -0.26,-0.65 -0.04,-0.08 -0.06,-0.16 -0.1,-0.24 -0.06,-0.24 -0.08,-0.53 -0.08,-0.81 0,-0.28 -0.02,-0.63 0.02,-1 0,0 0.02,-0.02 0.02,-0.04 -0.06,-0.37 0.04,-0.71 0.1,-1.08 0.12,-0.51 0.24,-1.04 0.39,-1.52 0.02,-0.14 0.02,-0.24 0.06,-0.37 0.02,-0.12 0.04,-0.22 0.08,-0.3 0,-0.12 0.06,-0.22 0.1,-0.35 0,-0.04 0.02,-0.1 0.04,-0.16 0.08,-0.24 0.14,-0.45 0.18,-0.67 0.14,-0.51 0.18,-0.59 0.47,-1.3 0.02,-0.1 0.1,-0.16 0.1,-0.26 0.08,-0.41 1.26,-3.11 2.11,-4.75 0.04,-0.06 -0.49,0.57 -0.45,0.51 0.06,-0.12 0.65,-0.91 0.73,-1.04 0.33,-0.53 0.47,-0.67 0.65,-0.71 0.14,-0.14 0.47,-0.45 0.65,-0.59 0.24,-0.22 0.79,-0.39 1.06,-0.28 0.08,0.02 0.16,0.06 0.24,0.04 0.3,0.04 0.53,0.22 0.73,0.41 0,0.06 0.08,0.1 0.14,0.18 0.06,0.26 0.26,0.53 0.18,0.89 0.12,0.35 0.06,0.59 -0.06,0.93 -0.28,0.69 -0.61,1.32 -1.06,1.93 -0.04,0.12 -0.14,0.2 -0.26,0.26 -0.14,0.08 -0.28,0.12 -0.45,0.22 0.04,-0.24 0.12,-0.43 0.2,-0.59z" />
    <path class="fil1" d="M20.28 9.49c-0.04,0.12 -0.45,0.73 -0.49,0.77 -0.02,0.1 -0.06,0.24 -0.16,0.3 0,-0.08 0.02,-0.12 0.02,-0.12 0.18,-0.41 0.49,-0.77 0.73,-1.16 -0.06,-0.08 -0.02,-0.08 -0.02,-0.08 0.35,-0.45 0.65,-0.81 0.91,-1.1 0.04,-0.04 0.16,-0.08 0.16,-0.18 0.06,-0.06 0.06,-0.06 0.18,-0.2 -0.16,0.12 -0.2,0.14 -0.3,0.24 -0.1,0.08 -0.2,0.12 -0.28,0.28 -0.51,0.57 -0.98,1.22 -1.38,2.05 -0.06,0.26 -0.12,0.35 -0.18,0.53 -0.06,0.14 -0.02,0.2 -0.06,0.33 0,0 0,0 0,0.06 0.12,-0.2 0.18,-0.41 0.24,-0.57 0.12,-0.22 0.57,-0.91 0.65,-1.1l-0.02 -0.06zm-0.91 1.32c-0.2,0.37 -0.41,0.85 -0.55,1.34 0,0.06 0,0.1 0,0.12 0.16,-0.28 0.26,-0.61 0.39,-0.87 0.1,-0.18 0.16,-0.39 0.22,-0.63 0,0 -0.04,0.02 -0.06,0.04zm-0.61 6.5c-0.06,0.18 -0.12,0.39 -0.18,0.59 -0.04,0.12 -0.06,0.24 -0.06,0.39 -0.04,0.2 -0.1,0.39 -0.12,0.57 -0.04,0.16 -0.08,0.32 -0.14,0.49 0.04,0.14 -0.04,0.2 -0.06,0.33 -0.02,0.08 -0.06,0.16 -0.08,0.26 0,0.18 -0.06,0.32 -0.1,0.53 -0.02,0.1 -0.04,0.24 -0.08,0.37 -0.04,0.14 -0.1,0.3 -0.1,0.45 0,0.2 -0.02,0.41 -0.02,0.57 0,0.06 0.02,0.1 0.04,0.16 0.2,0.41 0.35,-0.12 0.39,-0.22 0.12,-0.28 0.04,-0.14 0.16,-0.45 0.06,-0.24 0.14,-0.53 0.22,-0.77 0.04,-0.16 0.08,-0.37 0.1,-0.53 0.08,-0.49 0.14,-1.04 0.2,-1.56 0.1,-0.63 0.08,-0.53 0.14,-1.18 0.06,-1.22 -0.18,-0.47 -0.24,-0.16 -0.02,0.06 -0.04,0.12 -0.06,0.18zm3.53 -5.75c0.16,-0.37 0.35,-0.73 0.51,-1.06 0.18,-0.47 0.3,-0.89 0.37,-1.44 0.04,-0.41 -0.16,-1.18 -0.49,-0.47 -0.08,0.24 -0.2,0.49 -0.28,0.73 -0.14,0.39 -0.28,0.79 -0.45,1.22 -0.04,0.16 -0.12,0.35 -0.18,0.55 -0.14,0.51 -0.35,0.95 -0.53,1.38 -0.1,0.28 -0.2,0.61 -0.35,0.87 -0.28,0.67 -0.12,0.39 -0.39,1.08 -0.1,0.24 -0.24,0.63 0.06,0.71 0.24,-0.04 0.95,0.3 1.14,0.26 0.3,0 0.59,0.18 0.83,0.1 0.12,-0.04 0.22,-0.06 0.3,-0.08 0.55,-0.18 0,0.06 0.51,-0.24 0.24,0 0.69,-0.98 0.95,-0.95 0.89,-0.47 0.3,0.59 -0.51,1.22 -0.08,0.06 -0.3,0.18 -0.39,0.24 -2.03,0.73 -3.78,-0.69 -3.66,0.14 0.04,0.47 0.04,0.91 0.06,1.32 0,0.1 -0.02,0.18 0,0.26 -0.02,0.24 -0.02,0.43 -0.02,0.69 -0.04,0.12 -0.06,0.26 -0.06,0.37 -0.04,0.16 -0.1,0.3 -0.1,0.47 -0.02,0.1 -0.06,0.22 -0.04,0.37 -0.04,0.14 -0.08,0.26 -0.1,0.45l-0.02 0c0.02,-0.04 0.02,-0.06 0.04,-0.08 0,-0.04 -0.04,-0.04 -0.04,-0.02 -0.02,0 -0.04,0.04 -0.06,0.04 -0.02,0.02 -0.02,0.06 -0.02,0.08 0,0.12 0,0.22 -0.06,0.33 -0.04,0.16 -0.1,0.35 -0.12,0.49 -0.1,0.3 -0.18,0.59 -0.33,0.79 0,0.06 0,0.1 0,0.14 0,0.16 -0.08,0.26 -0.16,0.35 -0.02,0.04 -0.04,0.08 -0.06,0.12 -0.14,0.35 -0.26,0.59 -0.43,0.89 -0.06,0.16 -0.16,0.24 -0.28,0.26 -0.08,-0.02 -0.18,0.02 -0.24,0.02 -0.04,0 -0.04,0.06 -0.1,0.04 -0.06,0.02 -0.12,0.02 -0.16,0.04 -0.14,0.06 -0.3,0 -0.43,-0.1 -0.06,-0.04 -0.18,-0.16 -0.26,-0.24 -0.14,-0.14 -0.26,-0.39 -0.26,-0.65 -0.04,-0.08 -0.06,-0.16 -0.1,-0.24 -0.06,-0.24 -0.08,-0.53 -0.08,-0.81 0,-0.28 -0.02,-0.63 0.02,-1 0,0 0.02,-0.02 0.02,-0.04 -0.06,-0.37 0.04,-0.71 0.1,-1.08 0.12,-0.51 0.24,-1.04 0.39,-1.52 0.02,-0.14 0.02,-0.24 0.06,-0.37 0.02,-0.12 0.04,-0.22 0.08,-0.3 0,-0.12 0.06,-0.22 0.1,-0.35 0,-0.04 0.02,-0.1 0.04,-0.16 0.08,-0.24 0.14,-0.45 0.18,-0.67 0.14,-0.51 0.18,-0.59 0.47,-1.3 0.02,-0.1 0.1,-0.16 0.1,-0.26 0.08,-0.41 1.26,-3.11 2.11,-4.75 0.04,-0.06 -0.49,0.57 -0.45,0.51 0.06,-0.12 0.65,-0.91 0.73,-1.04 0.32,-0.53 0.47,-0.67 0.65,-0.71 0.14,-0.14 0.47,-0.45 0.65,-0.59 0.24,-0.22 0.79,-0.39 1.06,-0.28 0.08,0.02 0.16,0.06 0.24,0.04 0.3,0.04 0.53,0.22 0.73,0.41 0,0.06 0.08,0.1 0.14,0.18 0.06,0.26 0.26,0.53 0.18,0.89 0.12,0.35 0.06,0.59 -0.06,0.93 -0.28,0.69 -0.61,1.32 -1.06,1.93 -0.04,0.12 -0.14,0.2 -0.26,0.26 -0.14,0.08 -0.28,0.12 -0.45,0.22 0.04,-0.24 0.12,-0.43 0.2,-0.59z" />
    <path class="fil1" d="M32.22 15.18c0.14,0 0.26,-0.04 0.35,-0.16 0.12,-0.16 0.26,-0.3 0.37,-0.51 0.1,-0.22 0.22,-0.45 0.32,-0.69l0.12 -0.28 0.18 -0.71 0.1 -0.55 0 -0.18c0,-0.06 -0.06,-0.08 -0.12,-0.04l-0.04 0.04c-0.16,0.14 -0.28,0.35 -0.35,0.55 -0.08,0.26 -0.18,0.51 -0.32,0.73 -0.14,0.26 -0.3,0.51 -0.47,0.73 -0.18,0.26 -0.32,0.57 -0.47,0.85 -0.02,0.04 -0.04,0.1 -0.02,0.16 0.12,0.02 0.22,0.06 0.35,0.06zm-5.22 -2.8c-0.2,0.06 -0.39,0.14 -0.55,0.3l-0.28 0.24c-0.06,0.04 -0.12,0.1 -0.16,0.16 -0.14,0.16 -0.26,0.32 -0.39,0.49l-0.33 0.49 -0.04 0.08c0.04,0.02 0.06,0.04 0.08,0.04 0.28,0.04 0.55,0.02 0.83,-0.04 0.14,-0.04 0.26,-0.12 0.35,-0.26 0.28,-0.39 0.45,-0.81 0.57,-1.28 0,-0.06 0.02,-0.14 -0.02,-0.22 -0.02,0 -0.04,-0.02 -0.06,0zm-1.22 2.7c-0.06,-0.02 -0.14,-0.04 -0.2,-0.1 -0.16,-0.12 -0.35,-0.24 -0.47,-0.43 0,-0.02 -0.02,-0.02 -0.06,-0.04 -0.02,0.02 -0.04,0.02 -0.04,0.04 -0.14,0.22 -0.28,0.43 -0.35,0.69 -0.02,0.02 -0.02,0.04 -0.02,0.06 -0.06,0.2 -0.04,0.39 0.1,0.55 0.2,0.24 0.41,0.47 0.67,0.63 0.1,0.1 0.22,0.16 0.35,0.24 0.16,0.14 0.37,0.16 0.57,0.12 0.41,-0.06 0.79,-0.16 1.14,-0.39 0.26,-0.18 0.53,-0.32 0.79,-0.51 0.2,-0.14 0.39,-0.3 0.57,-0.45l0.93 -0.81c0,-0.04 0.02,-0.08 0.02,-0.12 0.02,-0.41 0.2,-0.75 0.39,-1.1 0.39,-0.81 0.97,-1.5 1.65,-2.09 0.16,-0.16 0.35,-0.28 0.55,-0.39 0.12,-0.08 0.26,-0.08 0.41,-0.04 0.08,0.04 0.2,0.06 0.3,0.1 0.08,0.04 0.16,0.1 0.24,0.16 0.16,0.12 0.33,0.24 0.49,0.35 0.08,0.06 0.14,0.12 0.16,0.2 0.02,0.08 0.06,0.12 0.12,0.16 0.08,0.04 0.14,0.1 0.2,0.14 0.14,0.12 0.22,0.26 0.3,0.41 0.04,0.12 0.04,0.22 0.04,0.35 -0.04,0.35 -0.1,0.69 -0.24,1.02 -0.04,0.1 -0.08,0.2 -0.14,0.28l-0.14 0.28 -0.41 0.79c-0.06,0.12 -0.2,0.24 -0.28,0.37 -0.14,0.22 -0.37,0.32 -0.59,0.43 -0.14,0.06 -0.26,0.06 -0.41,0l-0.2 -0.06c-0.12,0 -0.24,-0.06 -0.35,-0.12 -0.06,-0.06 -0.12,-0.1 -0.2,-0.1 -0.02,0 -0.04,0.02 -0.04,0.02 -0.02,0.16 -0.08,0.31 -0.08,0.47 -0.02,0.39 0.1,0.73 0.39,1 0.2,0.16 0.43,0.26 0.69,0.2 0.2,-0.04 0.39,-0.08 0.57,-0.14 0.14,-0.04 0.26,-0.12 0.39,-0.2 0.55,-0.37 1.1,-0.73 1.62,-1.12 0.18,-0.12 0.35,-0.28 0.49,-0.47 0.14,-0.16 0.3,-0.33 0.45,-0.51 0.22,-0.26 0.41,-0.53 0.55,-0.83 0.06,-0.08 0.08,-0.18 0.12,-0.28 0.06,0 0.04,0.04 0.04,0.06l0 0.12c-0.04,0.14 -0.06,0.3 -0.08,0.45 -0.02,0.12 -0.06,0.24 -0.12,0.37 -0.1,0.16 -0.2,0.32 -0.33,0.49 -0.06,0.08 -0.12,0.16 -0.14,0.26 -0.08,0.2 -0.2,0.39 -0.35,0.53 -0.06,0.06 -0.12,0.12 -0.14,0.2 0,0.02 -0.04,0.06 -0.06,0.08 -0.18,0.14 -0.37,0.3 -0.59,0.43 -0.12,0.06 -0.26,0.16 -0.39,0.24 -0.18,0.14 -0.39,0.26 -0.61,0.33 -0.24,0.08 -0.49,0.22 -0.71,0.35 -0.49,0.28 -1,0.45 -1.56,0.49 -0.26,0.02 -0.55,-0.02 -0.83,-0.08 -0.06,-0.02 -0.12,-0.06 -0.18,-0.1 -0.28,-0.14 -0.49,-0.37 -0.65,-0.63 -0.18,-0.32 -0.3,-0.67 -0.37,-1.04 -0.02,-0.08 -0.04,-0.16 -0.04,-0.24 -0.02,-0.04 -0.02,-0.1 -0.02,-0.14 0.04,-0.14 0,-0.26 0,-0.41 0.02,-0.12 0,-0.24 0.02,-0.39l-0.12 0.12c-0.06,0.06 -0.12,0.12 -0.16,0.2 -0.1,0.1 -0.18,0.2 -0.3,0.28 -0.12,0.1 -0.24,0.22 -0.37,0.3 -0.16,0.14 -0.33,0.26 -0.49,0.39 -0.3,0.24 -0.63,0.45 -1,0.61 -0.18,0.06 -0.37,0.14 -0.55,0.16 -0.2,0.04 -0.39,0.04 -0.59,0.06 -0.06,0.02 -0.12,0.02 -0.18,0.02 -0.16,0.04 -0.35,0.02 -0.51,0 -0.51,-0.1 -0.98,-0.26 -1.4,-0.57 -0.37,-0.28 -0.67,-0.63 -0.87,-1.06 -0.04,-0.1 -0.1,-0.18 -0.12,-0.26 -0.12,-0.3 -0.16,-0.61 -0.14,-0.93 0.04,-0.59 0.22,-1.14 0.55,-1.65 0.32,-0.55 0.71,-1.02 1.22,-1.42 0.18,-0.16 0.39,-0.26 0.59,-0.37 0.1,-0.04 0.2,-0.04 0.3,-0.08 0.06,0 0.12,-0.02 0.16,-0.04 0.12,-0.06 0.22,-0.04 0.33,0.02l0.41 0.3c0.08,0.04 0.14,0.1 0.22,0.1 0.08,0.02 0.14,0.06 0.2,0.12l0.3 0.3 0.14 0.18c0,0.06 0.06,0.1 0.1,0.12 0.24,0.26 0.41,0.57 0.47,0.93 0.04,0.22 0,0.45 -0.06,0.67 -0.06,0.24 -0.16,0.51 -0.26,0.73 -0.1,0.24 -0.28,0.45 -0.53,0.55 -0.02,0.02 -0.06,0.04 -0.08,0.04 -0.12,0.02 -0.24,0.06 -0.37,0.1 -0.12,0.02 -0.24,0.02 -0.37,0l-0.02 -0.02c-0.08,-0.1 -0.08,-0.1 -0.16,0l-0.26 -0.06z" />
    <path class="fil2" d="M13.51 28.77c-0.05,0 -0.1,0.01 -0.13,0.04 -0.03,0.03 -0.05,0.07 -0.05,0.12 0,0.05 0.02,0.09 0.05,0.13 0.03,0.03 0.07,0.06 0.12,0.07 0.05,0.02 0.11,0.03 0.17,0.05 0.06,0.02 0.12,0.03 0.18,0.06 0.06,0.02 0.12,0.05 0.17,0.08 0.05,0.03 0.09,0.08 0.12,0.14 0.03,0.06 0.05,0.13 0.05,0.21 0,0.15 -0.06,0.27 -0.18,0.37 -0.12,0.1 -0.27,0.16 -0.47,0.16 -0.19,0 -0.35,-0.05 -0.47,-0.14 -0.12,-0.09 -0.18,-0.23 -0.18,-0.4l0.45 0c0.01,0.14 0.08,0.21 0.21,0.21 0.06,0 0.11,-0.02 0.14,-0.05 0.03,-0.03 0.05,-0.07 0.05,-0.12 0,-0.05 -0.02,-0.09 -0.05,-0.12 -0.03,-0.03 -0.07,-0.06 -0.12,-0.07 -0.05,-0.02 -0.11,-0.04 -0.17,-0.05 -0.06,-0.02 -0.12,-0.03 -0.18,-0.06 -0.06,-0.02 -0.12,-0.05 -0.17,-0.08 -0.05,-0.03 -0.09,-0.08 -0.12,-0.14 -0.03,-0.06 -0.05,-0.13 -0.05,-0.21 0,-0.16 0.06,-0.29 0.18,-0.39 0.12,-0.1 0.27,-0.14 0.46,-0.14 0.19,0 0.34,0.04 0.45,0.13 0.11,0.08 0.17,0.22 0.18,0.4l-0.46 0c-0.01,-0.06 -0.03,-0.11 -0.06,-0.14 -0.03,-0.03 -0.08,-0.05 -0.13,-0.05z" />
    <polygon class="fil2" points="16.83,28.46 17.25,28.46 17.25,30.19 16.83,30.19 16.83,29.47 16.16,29.47 16.16,30.19 15.74,30.19 15.74,28.46 16.16,28.46 16.16,29.15 16.83,29.15 " />
    <path class="fil2" d="M19.96 29.68c0.08,-0.09 0.12,-0.21 0.12,-0.36 0,-0.15 -0.04,-0.27 -0.12,-0.36 -0.08,-0.09 -0.19,-0.14 -0.33,-0.14 -0.14,0 -0.25,0.04 -0.33,0.14 -0.08,0.09 -0.12,0.21 -0.12,0.36 0,0.15 0.04,0.27 0.12,0.36 0.08,0.09 0.19,0.13 0.33,0.13 0.14,0 0.25,-0.04 0.33,-0.13zm-0.96 0.27c-0.17,-0.17 -0.26,-0.38 -0.26,-0.63 0,-0.26 0.09,-0.47 0.26,-0.63 0.17,-0.17 0.38,-0.25 0.63,-0.25 0.25,0 0.46,0.08 0.63,0.25 0.17,0.17 0.25,0.38 0.25,0.63 0,0.26 -0.09,0.47 -0.26,0.63 -0.17,0.17 -0.38,0.25 -0.63,0.25 -0.25,0 -0.46,-0.08 -0.63,-0.25z" />
    <path class="fil2" d="M22.42 29.2l0.26 0c0.06,0 0.11,-0.02 0.15,-0.06 0.04,-0.04 0.06,-0.09 0.06,-0.15 0,-0.06 -0.02,-0.11 -0.06,-0.15 -0.04,-0.04 -0.09,-0.06 -0.15,-0.06l-0.26 0 0 0.42zm0.89 -0.21c0,0.12 -0.04,0.23 -0.13,0.34 -0.04,0.06 -0.11,0.1 -0.2,0.14 -0.09,0.04 -0.19,0.05 -0.31,0.05l-0.26 0 0 0.67 -0.42 0 0 -1.72 0.68 0c0.2,0 0.36,0.05 0.47,0.15 0.11,0.1 0.17,0.23 0.17,0.37z" />
  </g>

</svg>