<svg version="1.1" xmlns="http://www.w3.org/2000/svg" xmlns:xlink="http://www.w3.org/1999/xlink" x="0px" y="0px" viewBox="0 0 512 512" style="enable-background:new 0 0 512 512;" xml:space="preserve">
	<style>

		path, rect {
			fill: #DCA37D;
		}

	 </style>
	<g>
		<g>
			<path d="M477.928,445.6l-30.432-9.816l-11.56-128.464v-0.008l-3.384-37.584c2.864-1.328,5.48-3.176,7.648-5.552
			c4.536-4.968,6.792-11.656,6.184-18.352l-5.088-56c-1.104-12.104-10.88-21.24-22.92-21.728C421.856,163.344,424,157.888,424,152
			c0-3.304-0.728-6.648-2.224-10.232c0-0.008-0.008-0.016-0.016-0.024c-4.76-11.36-16.944-19.464-31.376-21.328
			c1.024-2.936,1.616-5.72,1.616-8.416c0-15.896-14.608-29.016-33.624-31.48C359.328,77.784,360,74.968,360,72
			c0-3.304-0.728-6.648-2.224-10.232c0-0.008-0.008-0.016-0.016-0.024c-4.76-11.36-16.944-19.464-31.376-21.328
			C327.408,37.48,328,34.696,328,32c0-17.648-17.944-32-40-32c-12.904,0-24.68,4.952-32.048,12.952C248.656,5.136,237.104,0,224,0
			c-17.136,0-32.304,8.736-37.76,21.744c0,0.008-0.008,0.016-0.016,0.024C184.728,25.352,184,28.696,184,32
			c0,2.968,0.672,5.784,1.624,8.52C166.608,42.984,152,56.104,152,72c0,2.696,0.592,5.48,1.608,8.416
			c-14.432,1.864-26.608,9.968-31.376,21.328c-0.008,0.008-0.016,0.016-0.016,0.024C120.728,105.352,120,108.696,120,112
			c0,2.968,0.672,5.784,1.624,8.52C102.608,122.984,88,136.104,88,152c0,3.072,0.648,6.224,1.984,9.64c0,0.008,0,0.008,0,0.016
			c0.904,2.304,2.2,4.416,3.656,6.432c-12.048,0.48-21.832,9.624-22.936,21.736l-5.088,56c-0.608,6.696,1.648,13.392,6.184,18.352
			c2.16,2.368,4.784,4.224,7.648,5.544L64.496,434.128l-31.32,10.808C23.064,447.928,16,457.392,16,467.944V488
			c0,13.232,10.768,24,24,24h432c13.232,0,24-10.768,24-24v-19.168C496,457.504,488.272,447.864,477.928,445.6z M399.64,155.616
			c1.016-0.4,2.088-0.752,3.208-1.088c0.288-0.08,0.576-0.168,0.864-0.248c1.248-0.336,2.576-0.624,4.016-0.856
			c0.056-0.008,0.12-0.016,0.176-0.024c-1.12,8.056-11.608,14.6-23.904,14.6c-3.856,0-7.552-0.64-10.832-1.792
			c0.344-0.064,0.608-0.152,0.944-0.224c1.432-0.28,2.792-0.6,4.072-0.96c0.384-0.104,0.792-0.208,1.168-0.32
			c1.552-0.472,3.008-0.984,4.376-1.528c0.336-0.136,0.648-0.28,0.976-0.416c1.072-0.456,2.112-0.92,3.104-1.392
			c0.392-0.192,0.784-0.376,1.168-0.568c1.136-0.568,2.248-1.136,3.32-1.696c0.992-0.52,1.96-1.016,2.928-1.504
			c0.296-0.144,0.592-0.288,0.888-0.432c1.048-0.504,2.112-0.992,3.216-1.44C399.432,155.688,399.536,155.656,399.64,155.616z
			 M384,136c5.2,0,10.12,1.176,14.136,3.208c-0.248,0.072-0.464,0.16-0.712,0.24c-0.712,0.224-1.392,0.456-2.056,0.696
			c-0.512,0.184-1.024,0.36-1.512,0.552c-0.68,0.264-1.32,0.544-1.968,0.824c-0.424,0.184-0.856,0.36-1.264,0.544
			c-0.712,0.328-1.4,0.664-2.072,1c-0.296,0.144-0.608,0.296-0.904,0.44c-0.944,0.48-1.864,0.952-2.76,1.424
			c-6.448,3.368-12.008,6.272-23.768,6.272c-0.384,0-0.712-0.024-1.08-0.032c0.28-3.392,2.28-6.504,5.344-9.048
			c4.312-1.224,8.264-3.056,11.776-5.352C379.344,136.312,381.616,136,384,136z M274.632,81.896c-4.28,1.224-8.216,3.04-11.712,5.32
			C260.704,87.688,258.408,88,256,88c-2.472,0-4.816-0.344-7.088-0.832c-0.68-0.44-1.296-0.928-2.008-1.328
			c1.144-0.24,2.232-0.512,3.28-0.808c0.384-0.104,0.792-0.2,1.168-0.32c1.552-0.472,3.008-0.984,4.376-1.528
			c0.336-0.136,0.648-0.28,0.976-0.416c1.072-0.456,2.112-0.92,3.104-1.392c0.392-0.192,0.784-0.376,1.168-0.568
			c1.136-0.568,2.248-1.136,3.32-1.696c0.992-0.52,1.96-1.016,2.928-1.504c0.296-0.144,0.592-0.288,0.888-0.432
			c1.048-0.504,2.112-0.992,3.216-1.44c0.104-0.04,0.208-0.072,0.312-0.112c1.016-0.4,2.088-0.752,3.208-1.088
			c0.288-0.08,0.576-0.168,0.864-0.248c1.248-0.336,2.576-0.624,4.016-0.856c0.056-0.008,0.12-0.016,0.176-0.024
			C279.464,76.584,277.528,79.496,274.632,81.896z M280.984,96.784C283.224,96.304,285.568,96,288,96
			c2.384,0,4.656,0.312,6.848,0.768c3.512,2.296,7.456,4.128,11.776,5.352c3.056,2.544,5.064,5.656,5.336,9.048
			c-0.368,0.008-0.696,0.032-1.08,0.032c-11.76,0-17.328-2.904-23.768-6.272c-0.896-0.472-1.816-0.944-2.76-1.424
			c-0.296-0.152-0.608-0.296-0.904-0.44c-0.68-0.336-1.36-0.672-2.072-1c-0.408-0.184-0.84-0.368-1.264-0.544
			c-0.64-0.28-1.288-0.552-1.968-0.824c-0.488-0.192-1-0.368-1.512-0.552c-0.368-0.128-0.712-0.272-1.088-0.4
			C277.472,98.872,279.272,97.888,280.984,96.784z M247.968,111.168c-0.368,0.008-0.696,0.032-1.08,0.032
			c-11.76,0-17.328-2.904-23.768-6.272c-0.896-0.472-1.816-0.944-2.76-1.424c-0.296-0.152-0.608-0.296-0.904-0.44
			c-0.68-0.336-1.36-0.672-2.072-1c-0.408-0.184-0.84-0.368-1.264-0.544c-0.64-0.28-1.288-0.552-1.968-0.824
			c-0.488-0.192-1-0.368-1.512-0.552c-0.368-0.128-0.712-0.272-1.088-0.4c1.928-0.872,3.728-1.856,5.44-2.96
			C219.224,96.304,221.568,96,224,96c2.384,0,4.656,0.312,6.848,0.768c3.512,2.296,7.456,4.128,11.776,5.352
			C245.688,104.664,247.696,107.776,247.968,111.168z M210.632,81.896c-4.28,1.224-8.216,3.04-11.712,5.32
			C196.704,87.688,194.408,88,192,88c-2.472,0-4.816-0.344-7.088-0.832c-0.68-0.44-1.296-0.928-2.008-1.328
			c1.144-0.24,2.232-0.512,3.28-0.808c0.384-0.104,0.792-0.2,1.168-0.32c1.552-0.472,3.008-0.984,4.376-1.528
			c0.336-0.136,0.648-0.28,0.976-0.416c1.072-0.456,2.112-0.92,3.104-1.392c0.392-0.192,0.784-0.376,1.168-0.568
			c1.136-0.568,2.248-1.136,3.32-1.696c0.992-0.52,1.96-1.016,2.928-1.504c0.296-0.144,0.592-0.288,0.888-0.432
			c1.048-0.504,2.112-0.992,3.216-1.44c0.104-0.04,0.208-0.072,0.312-0.112c1.016-0.4,2.088-0.752,3.208-1.088
			c0.288-0.08,0.576-0.168,0.864-0.248c1.248-0.336,2.576-0.624,4.016-0.856c0.056-0.008,0.12-0.016,0.176-0.024
			C215.464,76.584,213.528,79.496,210.632,81.896z M185.16,136.768c2.184-0.456,4.456-0.768,6.84-0.768
			c2.432,0,4.776,0.304,7.016,0.784c1.712,1.104,3.512,2.088,5.44,2.96c-0.376,0.128-0.72,0.264-1.088,0.4
			c-0.504,0.184-1.024,0.36-1.512,0.552c-0.68,0.264-1.32,0.544-1.968,0.824c-0.424,0.184-0.856,0.36-1.264,0.544
			c-0.712,0.328-1.4,0.664-2.072,1c-0.296,0.144-0.608,0.296-0.904,0.44c-0.944,0.48-1.864,0.952-2.76,1.424
			c-6.448,3.368-12.008,6.272-23.768,6.272c-0.384,0-0.712-0.024-1.08-0.032c0.28-3.392,2.28-6.504,5.344-9.048
			C177.696,140.896,181.648,139.064,185.16,136.768z M182.112,165.984c1.432-0.28,2.792-0.6,4.072-0.96
			c0.384-0.104,0.792-0.208,1.168-0.32c1.552-0.472,3.008-0.984,4.376-1.528c0.336-0.136,0.648-0.28,0.976-0.416
			c1.072-0.456,2.112-0.92,3.104-1.392c0.392-0.192,0.784-0.376,1.168-0.568c1.136-0.568,2.248-1.136,3.32-1.696
			c0.992-0.52,1.96-1.016,2.928-1.504c0.296-0.144,0.592-0.288,0.888-0.432c1.048-0.504,2.112-0.992,3.216-1.44
			c0.104-0.04,0.208-0.072,0.312-0.112c1.016-0.4,2.088-0.752,3.208-1.088c0.288-0.08,0.576-0.168,0.864-0.248
			c1.248-0.336,2.576-0.624,4.016-0.856c0.056-0.008,0.12-0.016,0.176-0.024c-1.12,8.056-11.608,14.6-23.904,14.6
			c-3.856,0-7.552-0.64-10.832-1.792C181.512,166.144,181.776,166.056,182.112,165.984z M205.376,121.904
			c-2.896-2.4-4.832-5.312-5.272-8.488c0.056,0.008,0.12,0.016,0.176,0.024c1.448,0.224,2.768,0.52,4.016,0.856
			c0.296,0.08,0.584,0.168,0.864,0.248c1.12,0.328,2.192,0.688,3.208,1.088c0.104,0.04,0.208,0.072,0.312,0.112
			c1.112,0.448,2.168,0.936,3.216,1.44c0.296,0.144,0.592,0.288,0.888,0.432c0.976,0.488,1.944,0.984,2.928,1.504
			c1.072,0.56,2.184,1.128,3.32,1.696c0.384,0.192,0.776,0.376,1.176,0.568c0.992,0.48,2.024,0.936,3.096,1.392
			c0.328,0.144,0.64,0.28,0.984,0.416c1.368,0.544,2.824,1.064,4.376,1.528c0.376,0.112,0.784,0.208,1.168,0.32
			c1.048,0.288,2.128,0.56,3.28,0.808c-0.712,0.4-1.336,0.888-2.008,1.328c-2.288,0.48-4.632,0.824-7.104,0.824
			c-2.408,0-4.704-0.312-6.92-0.776C213.584,124.944,209.656,123.128,205.376,121.904z M237.384,142.12
			c4.312-1.224,8.264-3.056,11.776-5.352c2.184-0.456,4.456-0.768,6.84-0.768c2.432,0,4.776,0.304,7.016,0.784
			c1.712,1.104,3.512,2.088,5.44,2.96c-0.376,0.128-0.72,0.264-1.088,0.4c-0.504,0.184-1.024,0.36-1.512,0.552
			c-0.68,0.264-1.32,0.544-1.968,0.824c-0.424,0.184-0.856,0.36-1.264,0.544c-0.712,0.328-1.4,0.664-2.072,1
			c-0.296,0.144-0.608,0.296-0.904,0.44c-0.944,0.48-1.864,0.952-2.76,1.424c-6.448,3.368-12.008,6.272-23.768,6.272
			c-0.384,0-0.712-0.024-1.08-0.032C232.32,147.776,234.32,144.664,237.384,142.12z M246.112,165.984
			c1.432-0.28,2.792-0.6,4.072-0.96c0.384-0.104,0.792-0.208,1.168-0.32c1.552-0.472,3.008-0.984,4.376-1.528
			c0.336-0.136,0.648-0.28,0.976-0.416c1.072-0.456,2.112-0.92,3.104-1.392c0.392-0.192,0.784-0.376,1.168-0.568
			c1.136-0.568,2.248-1.136,3.32-1.696c0.992-0.52,1.96-1.016,2.928-1.504c0.296-0.144,0.592-0.288,0.888-0.432
			c1.048-0.504,2.112-0.992,3.216-1.44c0.104-0.04,0.208-0.072,0.312-0.112c1.016-0.4,2.088-0.752,3.208-1.088
			c0.288-0.08,0.576-0.168,0.864-0.248c1.248-0.336,2.576-0.624,4.016-0.856c0.056-0.008,0.12-0.016,0.176-0.024
			c-1.12,8.056-11.608,14.6-23.904,14.6c-3.856,0-7.552-0.64-10.832-1.792C245.512,166.144,245.776,166.056,246.112,165.984z
			 M269.376,121.904c-2.896-2.4-4.832-5.312-5.272-8.488c0.056,0.008,0.12,0.016,0.176,0.024c1.448,0.224,2.768,0.52,4.016,0.856
			c0.296,0.08,0.584,0.168,0.864,0.248c1.12,0.328,2.192,0.688,3.208,1.088c0.104,0.04,0.208,0.072,0.312,0.112
			c1.112,0.448,2.168,0.936,3.216,1.44c0.296,0.144,0.592,0.288,0.888,0.432c0.976,0.488,1.944,0.984,2.928,1.504
			c1.072,0.56,2.184,1.128,3.32,1.696c0.384,0.192,0.776,0.376,1.176,0.568c0.992,0.48,2.024,0.936,3.096,1.392
			c0.328,0.144,0.64,0.28,0.984,0.416c1.368,0.544,2.824,1.064,4.376,1.528c0.376,0.112,0.784,0.208,1.168,0.32
			c1.048,0.288,2.128,0.56,3.28,0.808c-0.712,0.4-1.336,0.888-2.008,1.328c-2.288,0.48-4.632,0.824-7.104,0.824
			c-2.408,0-4.704-0.312-6.92-0.776C277.584,124.944,273.656,123.128,269.376,121.904z M301.384,142.12
			c4.312-1.224,8.264-3.056,11.776-5.352c2.184-0.456,4.456-0.768,6.84-0.768c2.432,0,4.776,0.304,7.016,0.784
			c1.712,1.104,3.512,2.088,5.44,2.96c-0.376,0.128-0.72,0.264-1.088,0.4c-0.504,0.184-1.024,0.36-1.512,0.552
			c-0.68,0.264-1.32,0.544-1.968,0.824c-0.424,0.184-0.856,0.36-1.264,0.544c-0.712,0.328-1.4,0.664-2.072,1
			c-0.296,0.144-0.608,0.296-0.904,0.44c-0.944,0.48-1.864,0.952-2.76,1.424c-6.448,3.368-12.008,6.272-23.768,6.272
			c-0.384,0-0.712-0.024-1.08-0.032C296.32,147.776,298.32,144.664,301.384,142.12z M310.112,165.984
			c1.432-0.28,2.792-0.6,4.072-0.96c0.384-0.104,0.792-0.208,1.168-0.32c1.552-0.472,3.008-0.984,4.376-1.528
			c0.336-0.136,0.648-0.28,0.976-0.416c1.072-0.456,2.112-0.92,3.104-1.392c0.392-0.192,0.784-0.376,1.168-0.568
			c1.136-0.568,2.248-1.136,3.32-1.696c0.992-0.52,1.96-1.016,2.928-1.504c0.296-0.144,0.592-0.288,0.888-0.432
			c1.048-0.504,2.112-0.992,3.216-1.44c0.104-0.04,0.208-0.072,0.312-0.112c1.016-0.4,2.088-0.752,3.208-1.088
			c0.288-0.08,0.576-0.168,0.864-0.248c1.248-0.336,2.576-0.624,4.016-0.856c0.056-0.008,0.12-0.016,0.176-0.024
			c-1.12,8.056-11.608,14.6-23.904,14.6c-3.856,0-7.552-0.64-10.832-1.792C309.512,166.144,309.776,166.056,310.112,165.984z
			 M333.368,121.904c-2.896-2.4-4.832-5.312-5.272-8.488c0.056,0.008,0.12,0.016,0.176,0.024c1.448,0.224,2.768,0.512,4.016,0.848
			c0.296,0.08,0.584,0.168,0.864,0.248c1.12,0.328,2.192,0.688,3.208,1.088c0.104,0.04,0.208,0.072,0.312,0.112
			c1.112,0.448,2.168,0.936,3.216,1.44c0.296,0.144,0.592,0.288,0.888,0.432c0.976,0.488,1.944,0.984,2.928,1.504
			c1.072,0.56,2.184,1.128,3.32,1.696c0.384,0.192,0.776,0.376,1.176,0.568c0.992,0.48,2.024,0.936,3.096,1.392
			c0.328,0.144,0.64,0.28,0.984,0.416c1.368,0.544,2.824,1.064,4.376,1.528c0.376,0.112,0.784,0.208,1.168,0.32
			c1.048,0.288,2.128,0.56,3.28,0.808c-0.712,0.4-1.336,0.888-2.008,1.328c-2.28,0.488-4.624,0.832-7.096,0.832
			c-2.408,0-4.704-0.312-6.92-0.776C341.584,124.944,337.656,123.128,333.368,121.904z M352,96c12.592,0,23.288,6.864,23.96,15.168
			c-0.368,0.008-0.696,0.032-1.08,0.032c-11.76,0-17.328-2.904-23.768-6.272c-0.896-0.472-1.816-0.944-2.76-1.424
			c-0.296-0.152-0.608-0.296-0.904-0.44c-0.68-0.336-1.36-0.672-2.072-1c-0.408-0.184-0.84-0.368-1.264-0.544
			c-0.64-0.28-1.288-0.552-1.968-0.824c-0.488-0.192-1-0.368-1.512-0.552c-0.368-0.128-0.712-0.272-1.088-0.4
			c1.928-0.872,3.728-1.856,5.44-2.96C347.224,96.304,349.568,96,352,96z M335.64,75.624c1.016-0.4,2.088-0.752,3.208-1.088
			c0.288-0.08,0.576-0.168,0.864-0.248c1.248-0.336,2.576-0.624,4.016-0.856c0.056-0.008,0.12-0.016,0.176-0.024
			c-0.44,3.176-2.376,6.088-5.272,8.488c-4.28,1.224-8.216,3.04-11.712,5.32C324.704,87.688,322.408,88,320,88
			c-2.472,0-4.816-0.344-7.088-0.832c-0.68-0.44-1.296-0.928-2.008-1.328c1.144-0.24,2.232-0.512,3.28-0.808
			c0.384-0.104,0.792-0.2,1.168-0.32c1.552-0.472,3.008-0.984,4.376-1.528c0.336-0.136,0.648-0.28,0.976-0.416
			c1.072-0.456,2.112-0.92,3.104-1.392c0.392-0.192,0.784-0.376,1.168-0.568c1.136-0.568,2.248-1.136,3.32-1.696
			c0.992-0.52,1.96-1.016,2.928-1.504c0.296-0.144,0.592-0.288,0.888-0.432c1.048-0.504,2.112-0.992,3.216-1.44
			C335.432,75.696,335.536,75.664,335.64,75.624z M320,56c5.2,0,10.12,1.176,14.136,3.208c-0.248,0.072-0.464,0.16-0.712,0.24
			c-0.712,0.224-1.392,0.456-2.056,0.696c-0.512,0.184-1.024,0.36-1.512,0.552c-0.68,0.264-1.32,0.544-1.968,0.824
			c-0.424,0.184-0.856,0.36-1.264,0.544c-0.712,0.328-1.4,0.664-2.072,1c-0.296,0.144-0.608,0.296-0.904,0.44
			c-0.944,0.48-1.864,0.952-2.76,1.424c-6.448,3.368-12.016,6.272-23.768,6.272c-0.384,0-0.712-0.024-1.08-0.032
			c0.28-3.392,2.28-6.504,5.344-9.048c4.312-1.224,8.264-3.056,11.776-5.352C315.344,56.312,317.616,56,320,56z M288,16
			c12.592,0,23.288,6.864,23.96,15.168c-0.368,0.008-0.696,0.032-1.08,0.032c-11.76,0-17.328-2.904-23.768-6.272
			c-0.896-0.472-1.816-0.944-2.76-1.424c-0.296-0.152-0.608-0.296-0.904-0.44c-0.68-0.336-1.36-0.672-2.072-1
			c-0.408-0.184-0.84-0.368-1.264-0.544c-0.64-0.28-1.288-0.552-1.968-0.824c-0.488-0.192-1-0.368-1.512-0.552
			c-0.664-0.24-1.344-0.472-2.056-0.696c-0.248-0.08-0.464-0.168-0.712-0.24C277.88,17.176,282.8,16,288,16z M264.272,33.44
			c1.448,0.224,2.768,0.512,4.016,0.848c0.296,0.08,0.584,0.168,0.864,0.248c1.12,0.328,2.192,0.688,3.208,1.088
			c0.104,0.04,0.208,0.072,0.312,0.112c1.112,0.448,2.168,0.936,3.216,1.44c0.296,0.144,0.592,0.288,0.888,0.432
			c0.976,0.488,1.944,0.984,2.928,1.504c1.072,0.56,2.184,1.128,3.32,1.696c0.384,0.192,0.776,0.376,1.176,0.568
			c0.992,0.48,2.024,0.936,3.096,1.392c0.328,0.144,0.64,0.28,0.984,0.416c1.368,0.544,2.824,1.064,4.376,1.528
			c0.376,0.112,0.784,0.208,1.168,0.32c1.048,0.288,2.128,0.56,3.28,0.808c-0.712,0.4-1.336,0.888-2.008,1.328
			C292.816,47.656,290.472,48,288,48c-2.408,0-4.704-0.312-6.92-0.776c-3.496-2.28-7.424-4.096-11.712-5.32
			c-2.896-2.4-4.832-5.312-5.272-8.488C264.152,33.424,264.216,33.432,264.272,33.44z M256,56c2.432,0,4.776,0.304,7.016,0.784
			c1.712,1.104,3.512,2.088,5.44,2.96c-0.376,0.128-0.72,0.264-1.088,0.4c-0.512,0.184-1.024,0.36-1.512,0.552
			c-0.68,0.264-1.32,0.544-1.968,0.824c-0.424,0.184-0.856,0.36-1.264,0.544c-0.712,0.328-1.4,0.664-2.072,1
			c-0.296,0.144-0.608,0.296-0.904,0.44c-0.944,0.48-1.864,0.952-2.76,1.424c-6.448,3.368-12.016,6.272-23.768,6.272
			c-0.384,0-0.712-0.024-1.08-0.032c0.28-3.392,2.28-6.504,5.344-9.048c4.312-1.224,8.264-3.056,11.768-5.352
			C251.344,56.312,253.616,56,256,56z M224,16c12.592,0,23.288,6.864,23.96,15.168c-0.368,0.008-0.696,0.032-1.08,0.032
			c-11.76,0-17.328-2.904-23.768-6.272c-0.896-0.472-1.816-0.944-2.76-1.424c-0.296-0.152-0.608-0.296-0.904-0.44
			c-0.68-0.336-1.36-0.672-2.072-1c-0.408-0.184-0.84-0.368-1.264-0.544c-0.64-0.28-1.288-0.552-1.968-0.824
			c-0.488-0.192-1-0.368-1.512-0.552c-0.664-0.24-1.344-0.472-2.056-0.696c-0.248-0.08-0.464-0.168-0.712-0.24
			C213.88,17.176,218.8,16,224,16z M200.28,33.44c1.448,0.224,2.768,0.52,4.016,0.856c0.296,0.08,0.584,0.168,0.864,0.248
			c1.12,0.328,2.192,0.688,3.208,1.088c0.104,0.04,0.208,0.072,0.312,0.112c1.112,0.448,2.168,0.936,3.216,1.44
			c0.296,0.144,0.592,0.288,0.888,0.432c0.976,0.488,1.944,0.984,2.928,1.504c1.072,0.56,2.184,1.128,3.32,1.696
			c0.384,0.192,0.776,0.376,1.176,0.568c0.992,0.48,2.024,0.936,3.096,1.392c0.328,0.144,0.64,0.28,0.984,0.416
			c1.368,0.544,2.824,1.064,4.376,1.528c0.376,0.112,0.784,0.208,1.168,0.32c1.048,0.288,2.128,0.56,3.28,0.808
			c-0.712,0.4-1.336,0.888-2.008,1.328C228.816,47.656,226.472,48,224,48c-2.408,0-4.704-0.312-6.92-0.776
			c-3.496-2.28-7.424-4.096-11.704-5.32c-2.896-2.4-4.832-5.312-5.272-8.488C200.16,33.424,200.224,33.432,200.28,33.44z M192,56
			c2.432,0,4.776,0.304,7.016,0.784c1.712,1.104,3.512,2.088,5.44,2.96c-0.376,0.128-0.72,0.264-1.088,0.4
			c-0.512,0.184-1.024,0.36-1.512,0.552c-0.68,0.264-1.32,0.544-1.968,0.824c-0.424,0.184-0.856,0.36-1.264,0.544
			c-0.712,0.328-1.4,0.664-2.072,1c-0.296,0.144-0.608,0.296-0.904,0.44c-0.944,0.48-1.864,0.952-2.76,1.424
			c-6.448,3.368-12.016,6.272-23.768,6.272c-0.384,0-0.712-0.024-1.08-0.032C168.712,62.864,179.408,56,192,56z M160,96
			c2.384,0,4.656,0.312,6.848,0.768c3.512,2.296,7.456,4.128,11.776,5.352c3.064,2.544,5.072,5.656,5.344,9.048
			c-0.368,0.008-0.696,0.032-1.08,0.032c-11.76,0-17.328-2.904-23.768-6.272c-0.896-0.472-1.816-0.944-2.76-1.424
			c-0.296-0.152-0.608-0.296-0.904-0.44c-0.68-0.336-1.36-0.672-2.072-1c-0.408-0.184-0.84-0.368-1.264-0.544
			c-0.64-0.28-1.288-0.552-1.968-0.824c-0.488-0.192-1-0.368-1.512-0.552c-0.664-0.24-1.344-0.472-2.056-0.696
			c-0.248-0.08-0.464-0.168-0.712-0.24C149.88,97.176,154.8,96,160,96z M136.28,113.44c1.448,0.224,2.768,0.52,4.016,0.856
			c0.296,0.08,0.584,0.168,0.864,0.248c1.12,0.328,2.192,0.688,3.208,1.088c0.104,0.04,0.208,0.072,0.312,0.112
			c1.112,0.448,2.168,0.936,3.216,1.44c0.296,0.144,0.592,0.288,0.888,0.432c0.976,0.488,1.944,0.984,2.928,1.504
			c1.072,0.56,2.184,1.128,3.32,1.696c0.384,0.192,0.776,0.376,1.176,0.568c0.992,0.48,2.024,0.936,3.096,1.392
			c0.328,0.144,0.64,0.28,0.984,0.416c1.368,0.544,2.824,1.064,4.376,1.528c0.376,0.112,0.784,0.208,1.168,0.32
			c1.048,0.288,2.128,0.56,3.28,0.808c-0.712,0.4-1.336,0.888-2.008,1.328c-2.288,0.48-4.632,0.824-7.104,0.824
			c-2.408,0-4.704-0.312-6.92-0.776c-3.496-2.28-7.424-4.096-11.704-5.32c-2.896-2.4-4.832-5.312-5.272-8.488
			C136.16,113.424,136.224,113.432,136.28,113.44z M151.904,153.4c-1.12,8.056-11.608,14.6-23.904,14.6
			c-3.856,0-7.552-0.64-10.832-1.792c0.344-0.064,0.608-0.152,0.944-0.224c1.432-0.28,2.792-0.6,4.072-0.96
			c0.384-0.104,0.792-0.208,1.168-0.32c1.552-0.472,3.008-0.984,4.376-1.528c0.336-0.136,0.648-0.28,0.976-0.416
			c1.072-0.456,2.112-0.92,3.104-1.392c0.392-0.192,0.784-0.376,1.168-0.568c1.136-0.568,2.248-1.136,3.32-1.696
			c0.992-0.52,1.96-1.016,2.928-1.504c0.296-0.144,0.592-0.288,0.888-0.432c1.048-0.504,2.112-0.992,3.216-1.44
			c0.104-0.04,0.208-0.072,0.312-0.112c1.016-0.4,2.088-0.752,3.208-1.088c0.288-0.08,0.576-0.168,0.864-0.248
			c1.248-0.336,2.576-0.624,4.016-0.856C151.784,153.416,151.848,153.408,151.904,153.4z M128,136c2.432,0,4.776,0.304,7.016,0.784
			c1.712,1.104,3.512,2.088,5.44,2.96c-0.376,0.128-0.72,0.264-1.088,0.4c-0.512,0.184-1.024,0.36-1.512,0.552
			c-0.68,0.264-1.32,0.544-1.968,0.824c-0.424,0.184-0.856,0.36-1.264,0.544c-0.712,0.328-1.4,0.664-2.072,1
			c-0.296,0.144-0.608,0.296-0.904,0.44c-0.944,0.48-1.864,0.952-2.76,1.424c-6.448,3.368-12.008,6.272-23.768,6.272
			c-0.384,0-0.712-0.024-1.08-0.032C104.712,142.864,115.408,136,128,136z M81.56,247.272l5.088-55.992
			c0.376-4.152,3.8-7.28,7.968-7.28h322.776c4.168,0,7.592,3.128,7.968,7.272l5.088,56c0.208,2.272-0.52,4.44-2.056,6.12
			S424.752,256,422.48,256H368H89.52c-2.272,0-4.368-0.928-5.904-2.608C82.08,251.712,81.352,249.544,81.56,247.272z
			 M419.656,305.024l-20.408,20.416L376,308v-36h40.688L419.656,305.024z M480,488c0,4.408-3.592,8-8,8h-24v-16h-16v16H88v-16H72v16
			H40c-4.408,0-8-3.592-8-8v-20.056c0-3.512,2.352-6.672,6.064-7.776l36.544-12.608c2.976-1.024,5.072-3.704,5.36-6.84L95.304,272
			H360v40c0,2.52,1.184,4.888,3.2,6.4l32,24c1.432,1.072,3.12,1.6,4.8,1.6c2.064,0,4.112-0.792,5.664-2.344l15.872-15.872
			l10.504,116.712c0.288,3.192,2.464,5.912,5.512,6.896l36.184,11.632c3.688,0.816,6.264,4.032,6.264,7.808V488z" />
		</g>
	</g>
	<g>
		<g>
			<path d="M289.936,350.056c-22.808-22.824-54.896-29.344-74.608-15.16c-1.616,1.16-3.16,2.424-4.584,3.848
			c-18.712,18.712-13.64,54.24,11.312,79.192c14.896,14.896,33.24,22.752,49.672,22.752c10.864,0,20.88-3.464,28.512-10.576
			c0.04-0.032,0.08-0.04,0.12-0.064c0.2-0.168,0.704-0.608,0.888-0.8C319.96,410.536,314.888,375.008,289.936,350.056z
			 M233.368,406.632c-14.752-14.752-21.008-34.336-16.576-47.84c0,0.008,0,0.008,0.008,0.016c0.424,1.368,0.944,2.784,1.528,4.232
			c0.144,0.36,0.304,0.72,0.464,1.088c0.632,1.464,1.344,2.944,2.232,4.488c0.024,0.048,0.048,0.088,0.072,0.136
			c0.896,1.544,2,3.144,3.232,4.776c0.304,0.408,0.624,0.816,0.952,1.224c1.344,1.688,2.816,3.4,4.6,5.184
			c10.52,10.528,19.28,12.712,27.008,14.648c6.808,1.704,12.184,3.048,19.576,10.44c1.368,1.368,2.472,2.648,3.464,3.904
			c0.192,0.24,0.392,0.488,0.576,0.72c0.896,1.192,1.664,2.344,2.304,3.472c0.12,0.216,0.224,0.424,0.336,0.632
			c0.576,1.08,1.072,2.144,1.488,3.208c0.04,0.096,0.088,0.192,0.12,0.288c0.44,1.152,0.8,2.312,1.136,3.496
			c0.024,0.096,0.056,0.192,0.08,0.28C272.6,429.224,250.152,423.408,233.368,406.632z M296.368,404.584
			c-0.072-0.128-0.192-0.264-0.272-0.4c-0.816-1.352-1.784-2.752-2.856-4.168c-0.328-0.432-0.656-0.864-1.008-1.296
			c-1.312-1.632-2.744-3.296-4.464-5.016c-10.52-10.528-19.28-12.712-27.008-14.648c-6.808-1.704-12.184-3.048-19.576-10.44
			c-7.392-7.4-8.752-12.784-10.464-19.6c-0.32-1.264-0.64-2.536-1-3.84c13.624-5.24,33.848,1.144,48.912,16.2
			C291.8,374.544,298.2,391.568,296.368,404.584z" />
		</g>
	</g>
	<g>
		<g>
			<path d="M256,288c-52.936,0-96,43.064-96,96c0,52.936,43.064,96,96,96c52.936,0,96-43.064,96-96C352,331.064,308.936,288,256,288z
			 M256,464c-44.112,0-80-35.888-80-80s35.888-80,80-80s80,35.888,80,80S300.112,464,256,464z" />
		</g>
	</g>
	<g>
		<g>
			<rect x="104" y="200" width="16" height="16" />
		</g>
	</g>
	<g>
		<g>
			<rect x="136" y="224" width="16" height="16" />
		</g>
	</g>
	<g>
		<g>
			<rect x="168" y="208" width="16" height="16" />
		</g>
	</g>
	<g>
		<g>
			<rect x="96" y="448" width="16" height="16" />
		</g>
	</g>
	<g>
		<g>
			<rect x="128" y="432" width="16" height="16" />
		</g>
	</g>
	<g>
		<g>
			<rect x="408" y="448" width="16" height="16" />
		</g>
	</g>
	<g>
		<g>
			<rect x="368" y="432" width="16" height="16" />
		</g>
	</g>
	<g>
		<g>
			<rect x="208" y="200" width="16" height="16" />
		</g>
	</g>
	<g>
		<g>
			<rect x="392" y="200" width="16" height="16" />
		</g>
	</g>
	<g>
		<g>
			<rect x="360" y="224" width="16" height="16" />
		</g>
	</g>
	<g>
		<g>
			<rect x="328" y="208" width="16" height="16" />
		</g>
	</g>
	<g>
		<g>
			<rect x="288" y="200" width="16" height="16" />
		</g>
	</g>
	<g>
		<g>
			<rect x="248" y="224" width="16" height="16" />
		</g>
	</g>
</svg>