<svg height="480pt" viewBox="0 0 480.0332 480" width="480pt" xmlns="http://www.w3.org/2000/svg">
    <style>

		path {
			fill: #DCA37D;
		}

	 </style>
    <path d="m368 224.015625c0-10.222656-12.175781-28.960937-17.414062-36.542969-1.574219-2.046875-4.007813-3.242187-6.585938-3.242187s-5.011719 1.195312-6.585938 3.242187c-5.238281 7.582032-17.414062 26.320313-17.414062 36.542969 0 13.253906 10.746094 24 24 24s24-10.746094 24-24zm-32 0c1.734375-6.113281 4.433594-11.914063 8-17.175781 3.5625 5.265625 6.265625 11.0625 8 17.175781 0 4.417969-3.582031 8-8 8s-8-3.582031-8-8zm0 0" />
    <path d="m464 224.015625c0-10.222656-12.175781-28.960937-17.414062-36.542969-1.574219-2.046875-4.007813-3.242187-6.585938-3.242187s-5.011719 1.195312-6.585938 3.242187c-5.238281 7.582032-17.414062 26.320313-17.414062 36.542969 0 13.253906 10.746094 24 24 24s24-10.746094 24-24zm-32 0c1.734375-6.113281 4.433594-11.914063 8-17.175781 3.5625 5.265625 6.265625 11.0625 8 17.175781 0 4.417969-3.582031 8-8 8s-8-3.582031-8-8zm0 0" />
    <path d="m472 .015625h-160c-4.417969 0-8 3.582031-8 8v22.5625l-32-5.335937v-17.226563c0-4.417969-3.582031-8-8-8h-256c-4.417969 0-8 3.582031-8 8v80c0 4.417969 3.582031 8 8 8h256c4.417969 0 8-3.582031 8-8v-14.558594l34.664062 5.785157 14.175782 28.351562c1.355468 2.710938 4.128906 4.425781 7.160156 4.421875h.207031c-5.292969 6.882813-8.175781 15.316406-8.207031 24v24c0 4.417969 3.582031 8 8 8h32c4.417969 0 8-3.582031 8-8v-16h48v16c0 4.417969 3.582031 8 8 8h32c4.417969 0 8-3.582031 8-8v-24c-.03125-8.683594-2.914062-17.117187-8.207031-24h.207031c3.046875.019531 5.839844-1.699219 7.199219-4.421875l16-32c.046875-.097656.214843-.648438.289062-.800781.246094-.910157.417969-1.839844.511719-2.777344v-64c0-4.417969-3.582031-8-8-8zm-152 16h144v16h-40v16h40v16h-144zm-304 0h208v64h-208zm240 64h-16v-64h16zm16-38.550781 32 5.328125v15.777343l-32-5.328124zm88 86.550781c-4.417969 0-8 3.582031-8 8v16h-16v-16c0-13.253906 10.746094-24 24-24h8v16zm24-16h16v16h-16zm64 24v16h-16v-16c0-4.417969-3.582031-8-8-8h-8v-16h8c13.253906 0 24 10.746094 24 24zm3.054688-40h-118.109376l-8-16h134.109376zm0 0" />
    <path d="m48 32.015625h-16v32h32v-16h-16zm0 0" />
    <path d="m80 48.015625h16v16h-16zm0 0" />
    <path d="m392 32.015625h16v16h-16zm0 0" />
    <path d="m472 432.015625h-26.238281c14.695312-11.628906 24.140625-28.644531 26.238281-47.269531l8-88c.207031-2.246094-.546875-4.472656-2.070312-6.136719-1.523438-1.660156-3.675782-2.601563-5.929688-2.59375h-256c-13.253906 0-24 10.746094-24 24v64c0 13.253906 10.746094 24 24 24h51.527344c4.382812 12.601563 12.25 23.695313 22.6875 32h-42.214844c-4.417969 0-8 3.582031-8 8 .027344 22.082031 17.917969 39.972656 40 40h160c22.082031-.027344 39.972656-17.917969 40-40 0-4.417969-3.582031-8-8-8zm-210.945312-80h-21.054688v-16h19.609375zm-53.054688 24v-64c0-4.417969 3.582031-8 8-8h40.695312l1.457032 16h-34.152344v48h38.511719l1.488281 16h-48c-4.417969 0-8-3.582031-8-8zm72 7.273437-7.199219-79.273437h190.480469l-7.203125 79.121094c-3.480469 28.214843-27.652344 49.28125-56.078125 48.878906h-64c-28.351562.386719-52.460938-20.59375-56-48.726563zm160 80.726563h-160c-10.167969-.011719-19.230469-6.417969-22.632812-16h205.265624c-3.402343 9.582031-12.464843 15.988281-22.632812 16zm0 0" />
    <path d="m72 200.015625h96c4.417969 0 8 3.582031 8 8v16c0 13.253906 10.746094 24 24 24h56c4.417969 0 8 3.582031 8 8v16h16v-16c0-13.253906-10.746094-24-24-24h-56c-4.417969 0-8-3.582031-8-8v-16c0-13.253906-10.746094-24-24-24h-96zm0 0" />
    <path d="m304 232.015625v-24c0-4.417969-3.582031-8-8-8h-40c-4.417969 0-8-3.582031-8-8-.027344-22.078125-17.917969-39.972656-40-40h-56v16h56c13.253906 0 24 10.746094 24 24s10.746094 24 24 24h32v16zm0 0" />
    <path d="m120 152.015625h16v16h-16zm0 0" />
</svg>